<svg xmlns="http://www.w3.org/2000/svg" width="728" height="724" viewBox="0 0 728 724">
<g>
<path d="M 365.75 724.00 L 362.11 724.00 L 357.80 718.73 C351.41,710.90 330.16,685.60 316.50,669.55 C304.96,656.00 296.33,645.78 283.50,630.49 C280.20,626.55 275.42,620.90 272.88,617.92 C258.02,600.48 249.87,590.80 245.47,585.39 C242.74,582.03 236.00,574.01 230.50,567.57 C225.00,561.12 218.93,553.92 217.00,551.57 C215.07,549.21 209.00,541.97 203.50,535.48 C198.00,529.00 190.80,520.45 187.50,516.49 C184.20,512.53 178.11,505.29 173.96,500.40 C169.82,495.50 161.52,485.65 155.53,478.50 C143.74,464.43 138.08,457.73 128.00,445.92 C124.43,441.73 117.22,433.23 112.00,427.02 C106.78,420.82 101.94,415.15 101.25,414.44 C100.27,413.42 100.00,391.77 100.00,313.07 L 100.00 213.00 L 627.00 213.00 L 627.00 413.13 L 624.26 416.82 C622.75,418.84 621.25,420.73 620.93,421.00 C620.44,421.42 598.95,447.02 592.47,454.90 C591.39,456.22 588.47,459.64 586.00,462.50 C583.53,465.36 578.58,471.23 575.00,475.55 C571.42,479.87 565.78,486.57 562.45,490.45 C559.12,494.33 549.31,505.98 540.63,516.34 C531.96,526.69 517.35,544.02 508.17,554.84 C498.99,565.65 488.70,577.88 485.31,582.00 C478.57,590.21 473.46,596.29 450.09,623.95 C441.52,634.10 433.38,643.84 432.00,645.58 C429.35,648.96 409.91,672.15 409.02,673.00 C408.74,673.28 406.27,676.20 403.55,679.50 C400.83,682.80 396.78,687.55 394.55,690.06 C392.32,692.57 386.67,699.27 382.00,704.96 C377.33,710.65 371.76,717.26 369.62,719.65 L 365.75 724.00 ZM 359.95 715.75 C361.81,718.09 363.66,720.00 364.05,720.00 C364.44,720.00 366.49,717.86 368.61,715.25 C370.73,712.64 376.29,705.95 380.98,700.40 C414.22,660.98 482.91,579.26 498.86,560.15 C506.36,551.16 515.69,540.08 519.60,535.54 C525.88,528.23 534.81,517.63 565.93,480.54 C590.63,451.10 606.40,432.36 614.72,422.57 L 624.00 411.64 L 624.00 216.00 L 104.00 216.00 L 104.00 411.60 L 116.11 426.05 C122.77,434.00 131.41,444.33 135.32,449.00 C139.23,453.67 144.02,459.31 145.97,461.53 C147.91,463.74 151.52,467.99 154.00,470.97 C156.48,473.96 165.02,484.11 173.00,493.54 C188.83,512.25 211.26,538.91 228.50,559.49 C234.55,566.71 248.95,583.82 260.50,597.50 C272.05,611.18 284.18,625.56 287.44,629.44 C295.86,639.43 307.27,652.94 316.55,663.88 C320.92,669.04 326.75,676.04 329.50,679.44 C332.25,682.83 339.47,691.44 345.54,698.56 C351.61,705.67 358.09,713.41 359.95,715.75 ZM 593.00 246.50 L 593.00 375.00 L 134.00 375.00 L 134.00 247.01 ZM 445.59 576.06 C423.64,602.15 405.08,624.16 404.34,624.96 C403.22,626.19 403.00,607.86 403.00,513.21 L 403.00 400.00 L 498.00 400.00 C550.25,400.00 593.00,400.32 593.00,400.70 C593.00,401.09 591.71,402.78 590.14,404.45 C588.57,406.13 573.87,423.48 557.48,443.00 C541.10,462.52 524.50,482.27 520.59,486.88 C516.69,491.49 507.20,502.76 499.50,511.94 C491.80,521.11 467.54,549.96 445.59,576.06 ZM 271.46 355.75 C271.80,356.64 274.97,357.00 282.47,357.00 L 293.00 357.00 L 293.00 319.00 L 344.15 319.00 L 347.08 316.08 L 350.00 313.15 L 350.00 269.91 L 345.07 264.98 L 308.28 265.24 L 271.50 265.50 L 271.24 310.00 C271.10,334.48 271.19,355.06 271.46,355.75 ZM 165.67 356.33 C166.03,356.70 182.27,357.00 201.74,357.00 L 237.15 357.00 L 240.08 354.08 L 243.00 351.15 L 243.00 329.71 C243.00,309.53 242.88,308.11 240.93,305.63 L 238.85 303.00 L 187.00 303.00 L 187.00 281.00 L 243.00 281.00 L 243.00 264.93 L 205.91 265.21 L 168.82 265.50 L 166.91 267.86 C165.16,270.02 165.00,272.05 165.00,292.02 L 165.00 313.82 L 168.08 316.41 L 171.15 319.00 L 221.00 319.00 L 221.00 340.00 L 165.00 340.00 L 165.00 347.83 C165.00,352.14 165.30,355.97 165.67,356.33 ZM 487.92 354.08 L 490.85 357.00 L 557.15 357.00 L 560.08 354.08 C562.94,351.21 563.00,350.93 563.00,340.58 L 563.00 330.00 L 541.00 330.00 L 541.00 340.00 L 507.00 340.00 L 507.00 281.00 L 541.00 281.00 L 541.00 291.00 L 563.00 291.00 L 563.00 280.45 C563.00,270.59 562.84,269.75 560.55,267.45 L 558.09 265.00 L 489.90 265.00 L 487.45 267.65 L 485.00 270.29 L 485.00 351.15 ZM 378.67 356.33 C379.03,356.70 383.98,357.00 389.67,357.00 L 400.00 357.00 L 400.00 319.04 L 419.25 318.77 L 438.50 318.50 L 438.79 310.77 L 439.08 303.04 L 419.79 302.77 L 400.50 302.50 L 400.22 291.75 L 399.93 281.00 L 457.00 281.00 L 457.00 265.00 L 378.00 265.00 L 378.00 310.33 C378.00,335.27 378.30,355.97 378.67,356.33 ZM 328.00 281.00 L 328.00 303.00 L 311.17 303.00 C301.91,303.00 294.03,302.70 293.67,302.33 C293.30,301.97 293.00,297.02 293.00,291.33 L 293.00 281.00 Z" fill="rgb(2,2,2)"/>
<path d="M 324.61 623.42 C325.44,625.58 323.83,625.35 322.00,623.03 C321.17,621.99 313.75,613.16 305.50,603.41 C297.25,593.66 286.67,581.10 282.00,575.49 C277.33,569.89 270.28,561.52 266.35,556.90 C259.65,549.03 241.82,527.88 220.48,502.50 C215.39,496.45 202.13,480.70 191.01,467.50 C179.90,454.30 166.68,438.60 161.65,432.60 C156.62,426.61 148.56,417.09 143.75,411.45 C138.94,405.81 135.00,400.93 135.00,400.60 C135.00,400.27 177.52,400.00 229.50,400.00 L 324.00 400.00 L 324.00 510.92 C324.00,571.92 324.27,622.55 324.61,623.42 ZM 181.61 0.00 L 546.50 0.00 C415.23,0.00 365.00,0.30 365.00,1.10 C365.00,1.70 366.76,6.55 368.90,11.87 C371.05,17.19 373.30,23.40 373.91,25.67 C374.52,27.94 375.65,30.03 376.41,30.33 C377.18,30.62 384.90,31.19 393.57,31.58 L 409.35 32.30 L 406.78 34.40 C397.14,42.29 391.89,46.33 387.75,49.06 C382.66,52.41 382.04,54.21 384.37,58.80 C385.13,60.28 386.50,64.65 387.43,68.50 C388.35,72.35 389.76,77.20 390.55,79.27 C393.17,86.08 392.42,86.29 384.75,80.91 C380.76,78.12 376.38,74.99 375.00,73.95 C373.62,72.92 370.58,70.91 368.23,69.48 L 363.96 66.89 L 354.23 73.45 C348.88,77.06 342.59,81.38 340.25,83.06 C336.49,85.76 336.00,85.89 336.00,84.22 C336.00,83.18 336.87,79.67 337.93,76.42 C340.75,67.79 344.00,55.78 344.00,53.97 C344.00,52.41 331.81,42.00 329.97,42.00 C329.44,42.00 328.99,41.66 328.98,41.25 C328.97,40.84 326.44,38.70 323.37,36.50 L 317.77 32.50 L 329.64 31.89 C336.16,31.55 343.83,31.21 346.68,31.14 L 351.86 31.00 L 354.04 25.25 C355.24,22.09 357.48,15.90 359.01,11.50 C360.54,7.10 362.11,2.71 362.50,1.75 C363.18,0.09 354.17,0.00 181.61,0.00 ZM 294.41 172.93 C291.16,175.09 285.25,179.12 281.29,181.89 C274.06,186.94 272.17,187.17 273.90,182.82 C274.88,180.36 282.00,155.65 282.00,154.71 C282.00,154.21 272.97,146.99 260.67,137.66 C258.02,135.65 255.99,133.94 256.17,133.86 C256.35,133.79 263.92,133.45 273.00,133.11 L 289.50 132.50 L 295.00 116.76 C298.02,108.10 300.77,101.02 301.09,101.01 C301.90,101.00 306.40,112.63 309.79,123.50 L 312.59 132.50 L 329.37 132.77 C342.07,132.98 346.05,133.35 345.75,134.27 C345.53,134.95 342.23,137.87 338.42,140.77 C334.62,143.67 328.94,148.05 325.80,150.51 L 320.10 154.98 L 321.64 160.24 C322.49,163.13 324.70,170.20 326.55,175.95 C329.90,186.34 330.10,188.32 327.61,186.46 C326.89,185.93 322.53,182.95 317.90,179.84 C313.28,176.72 307.95,173.01 306.06,171.59 C304.16,170.16 302.09,169.00 301.46,169.00 C300.83,169.00 297.65,170.77 294.41,172.93 ZM 419.01 173.66 C415.00,176.32 408.90,180.38 405.46,182.68 C402.01,184.98 398.99,186.66 398.75,186.41 C398.17,185.84 400.01,178.81 403.90,166.65 C405.61,161.33 407.00,156.33 407.00,155.53 C407.00,154.74 405.54,152.96 403.75,151.58 C382.42,135.12 381.82,134.59 383.66,133.86 C384.67,133.47 391.93,133.11 399.79,133.07 L 414.07 133.00 L 415.86 128.75 C416.85,126.41 419.14,120.00 420.95,114.50 C422.77,109.00 424.68,103.67 425.21,102.65 C426.15,100.86 426.21,100.86 427.46,102.65 C428.16,103.67 429.99,108.55 431.52,113.50 C433.04,118.45 435.33,124.86 436.59,127.75 L 438.89 133.00 L 453.19 133.07 C461.06,133.11 468.30,133.46 469.28,133.84 C471.12,134.57 467.01,138.33 451.75,149.89 C448.59,152.28 446.00,154.39 446.00,154.56 C446.00,155.83 449.23,168.90 449.94,170.50 C450.75,172.31 454.00,185.12 454.00,186.47 C454.00,187.15 448.05,183.30 438.01,176.13 C437.56,175.81 437.13,175.50 436.71,175.20 C431.29,171.31 428.92,169.61 426.62,169.71 C424.65,169.79 422.74,171.19 419.01,173.66 Z" fill="rgb(209,55,66)"/>
<path d="M 0.00 0.00 L 181.61 0.00 C354.17,0.00 363.18,0.09 362.50,1.75 C362.11,2.71 360.54,7.10 359.01,11.50 C357.48,15.90 355.24,22.09 354.04,25.25 L 351.86 31.00 L 346.68 31.14 C343.83,31.21 336.16,31.55 329.64,31.89 L 317.77 32.50 L 323.37 36.50 C326.44,38.70 328.97,40.84 328.98,41.25 C328.99,41.66 329.44,42.00 329.97,42.00 C331.81,42.00 344.00,52.41 344.00,53.97 C344.00,55.78 340.75,67.79 337.93,76.42 C336.87,79.67 336.00,83.18 336.00,84.22 C336.00,85.89 336.49,85.76 340.25,83.06 C342.59,81.38 348.88,77.06 354.23,73.45 L 363.96 66.89 L 368.23 69.48 C370.58,70.91 373.62,72.92 375.00,73.95 C376.38,74.99 380.76,78.12 384.75,80.91 C392.42,86.29 393.17,86.08 390.55,79.27 C389.76,77.20 388.35,72.35 387.43,68.50 C386.50,64.65 385.13,60.28 384.37,58.80 C382.04,54.21 382.66,52.41 387.75,49.06 C391.89,46.33 397.14,42.29 406.78,34.40 L 409.35 32.30 L 393.57 31.58 C384.90,31.19 377.18,30.62 376.41,30.33 C375.65,30.03 374.52,27.94 373.91,25.67 C373.30,23.40 371.05,17.19 368.90,11.87 C366.76,6.55 365.00,1.70 365.00,1.10 C365.00,0.30 415.23,0.00 546.50,0.00 L 728.00 0.00 L 728.00 724.00 L 365.75 724.00 L 369.62 719.65 C371.76,717.26 377.33,710.65 382.00,704.96 C386.67,699.27 392.32,692.57 394.55,690.06 C396.78,687.55 400.83,682.80 403.55,679.50 C406.27,676.20 408.74,673.28 409.02,673.00 C409.91,672.15 429.35,648.96 432.00,645.58 C433.38,643.84 441.52,634.10 450.09,623.95 C473.46,596.29 478.57,590.21 485.31,582.00 C488.70,577.88 498.99,565.65 508.17,554.84 C517.35,544.02 531.96,526.69 540.63,516.34 C549.31,505.98 559.12,494.33 562.45,490.45 C565.78,486.57 571.42,479.87 575.00,475.55 C578.58,471.23 583.53,465.36 586.00,462.50 C588.47,459.64 591.39,456.22 592.47,454.90 C598.95,447.02 620.44,421.42 620.93,421.00 C621.25,420.73 622.75,418.84 624.26,416.82 L 627.00 413.13 L 627.00 213.00 L 100.00 213.00 L 100.00 313.07 C100.00,391.77 100.27,413.42 101.25,414.44 C101.94,415.15 106.78,420.82 112.00,427.02 C117.22,433.23 124.43,441.73 128.00,445.92 C138.08,457.73 143.74,464.43 155.53,478.50 C161.52,485.65 169.82,495.50 173.96,500.40 C178.11,505.29 184.20,512.53 187.50,516.49 C190.80,520.45 198.00,529.00 203.50,535.48 C209.00,541.97 215.07,549.21 217.00,551.57 C218.93,553.92 225.00,561.12 230.50,567.57 C236.00,574.01 242.74,582.03 245.47,585.39 C249.87,590.80 258.02,600.48 272.88,617.92 C275.42,620.90 280.20,626.55 283.50,630.49 C296.33,645.78 304.96,656.00 316.50,669.55 C330.16,685.60 351.41,710.90 357.80,718.73 L 362.11 724.00 L 0.00 724.00 ZM 359.95 715.75 C358.09,713.41 351.61,705.67 345.54,698.56 C339.47,691.44 332.25,682.83 329.50,679.44 C326.75,676.04 320.92,669.04 316.55,663.88 C307.27,652.94 295.86,639.43 287.44,629.44 C284.18,625.56 272.05,611.18 260.50,597.50 C248.95,583.82 234.55,566.71 228.50,559.49 C211.26,538.91 188.83,512.25 173.00,493.54 C165.02,484.11 156.48,473.96 154.00,470.97 C151.52,467.99 147.91,463.74 145.97,461.53 C144.02,459.31 139.23,453.67 135.32,449.00 C131.41,444.33 122.77,434.00 116.11,426.05 L 104.00 411.60 L 104.00 216.00 L 624.00 216.00 L 624.00 411.64 L 614.72 422.57 C606.40,432.36 590.63,451.10 565.93,480.54 C534.81,517.63 525.88,528.23 519.60,535.54 C515.69,540.08 506.36,551.16 498.86,560.15 C482.91,579.26 414.22,660.98 380.98,700.40 C376.29,705.95 370.73,712.64 368.61,715.25 C366.49,717.86 364.44,720.00 364.05,720.00 C363.66,720.00 361.81,718.09 359.95,715.75 ZM 593.00 246.50 L 134.00 247.01 L 134.00 375.00 L 593.00 375.00 ZM 445.59 576.06 C467.54,549.96 491.80,521.11 499.50,511.94 C507.20,502.76 516.69,491.49 520.59,486.88 C524.50,482.27 541.10,462.52 557.48,443.00 C573.87,423.48 588.57,406.13 590.14,404.45 C591.71,402.78 593.00,401.09 593.00,400.70 C593.00,400.32 550.25,400.00 498.00,400.00 L 403.00 400.00 L 403.00 513.21 C403.00,607.86 403.22,626.19 404.34,624.96 C405.08,624.16 423.64,602.15 445.59,576.06 ZM 324.61 623.42 C324.27,622.55 324.00,571.92 324.00,510.92 L 324.00 400.00 L 229.50 400.00 C177.52,400.00 135.00,400.27 135.00,400.60 C135.00,400.93 138.94,405.81 143.75,411.45 C148.56,417.09 156.62,426.61 161.65,432.60 C166.68,438.60 179.90,454.30 191.01,467.50 C202.13,480.70 215.39,496.45 220.48,502.50 C241.82,527.88 259.65,549.03 266.35,556.90 C270.28,561.52 277.33,569.89 282.00,575.49 C286.67,581.10 297.25,593.66 305.50,603.41 C313.75,613.16 321.17,621.99 322.00,623.03 C323.83,625.35 325.44,625.58 324.61,623.42 ZM 271.46 355.75 C271.19,355.06 271.10,334.48 271.24,310.00 L 271.50 265.50 L 308.28 265.24 L 345.07 264.98 L 350.00 269.91 L 350.00 313.15 L 347.08 316.08 L 344.15 319.00 L 293.00 319.00 L 293.00 357.00 L 282.47 357.00 C274.97,357.00 271.80,356.64 271.46,355.75 ZM 165.67 356.33 C165.30,355.97 165.00,352.14 165.00,347.83 L 165.00 340.00 L 221.00 340.00 L 221.00 319.00 L 171.15 319.00 L 168.08 316.41 L 165.00 313.82 L 165.00 292.02 C165.00,272.05 165.16,270.02 166.91,267.86 L 168.82 265.50 L 205.91 265.21 L 243.00 264.93 L 243.00 281.00 L 187.00 281.00 L 187.00 303.00 L 238.85 303.00 L 240.93 305.63 C242.88,308.11 243.00,309.53 243.00,329.71 L 243.00 351.15 L 240.08 354.08 L 237.15 357.00 L 201.74 357.00 C182.27,357.00 166.03,356.70 165.67,356.33 ZM 487.92 354.08 L 485.00 351.15 L 485.00 270.29 L 487.45 267.65 L 489.90 265.00 L 558.09 265.00 L 560.55 267.45 C562.84,269.75 563.00,270.59 563.00,280.45 L 563.00 291.00 L 541.00 291.00 L 541.00 281.00 L 507.00 281.00 L 507.00 340.00 L 541.00 340.00 L 541.00 330.00 L 563.00 330.00 L 563.00 340.58 C563.00,350.93 562.94,351.21 560.08,354.08 L 557.15 357.00 L 490.85 357.00 ZM 378.67 356.33 C378.30,355.97 378.00,335.27 378.00,310.33 L 378.00 265.00 L 457.00 265.00 L 457.00 281.00 L 399.93 281.00 L 400.22 291.75 L 400.50 302.50 L 419.79 302.77 L 439.08 303.04 L 438.79 310.77 L 438.50 318.50 L 419.25 318.77 L 400.00 319.04 L 400.00 357.00 L 389.67 357.00 C383.98,357.00 379.03,356.70 378.67,356.33 ZM 524.21 186.15 C525.97,187.27 527.76,187.20 528.50,186.00 C528.84,185.45 529.81,185.00 530.66,185.00 C532.30,185.00 538.38,179.17 538.48,177.50 C538.52,176.95 539.34,176.64 540.30,176.80 C541.27,176.97 544.12,175.71 546.64,174.01 C552.14,170.30 554.90,170.46 561.01,174.89 C564.86,177.68 565.05,178.01 562.90,178.07 C561.33,178.12 562.67,178.98 566.78,180.57 C570.24,181.90 574.19,183.73 575.56,184.63 C578.78,186.74 579.38,186.04 578.15,181.59 C577.56,179.46 577.53,178.00 578.08,178.00 C579.24,178.00 579.29,174.72 578.15,173.45 C577.68,172.93 576.72,170.36 576.02,167.75 C575.31,165.14 574.15,163.00 573.43,163.00 C572.64,163.00 571.85,161.17 571.43,158.38 C570.77,153.98 570.90,153.63 574.07,151.13 C575.91,149.68 579.00,148.27 580.95,148.00 C583.66,147.62 584.57,146.98 584.82,145.28 C584.99,144.04 587.42,141.25 590.32,138.94 C593.17,136.68 595.84,134.22 596.26,133.48 C597.42,131.44 594.11,130.84 588.05,131.99 C581.03,133.32 575.02,133.27 569.62,131.82 C565.32,130.67 565.18,130.50 563.41,124.32 C562.03,119.48 561.17,118.00 559.75,118.00 C557.54,118.00 555.00,112.57 555.00,107.87 C555.00,103.56 552.34,101.04 549.29,102.45 C546.47,103.75 542.59,114.51 543.55,118.35 C543.94,119.89 543.56,122.17 542.60,124.11 C541.72,125.87 540.99,128.03 540.98,128.90 C540.97,130.30 540.85,130.31 540.00,129.00 C539.17,127.72 539.03,127.75 539.02,129.25 C539.00,130.73 538.02,131.00 532.56,131.00 C529.02,131.00 525.84,131.45 525.50,132.00 C525.16,132.55 521.53,133.00 517.44,133.00 C513.15,133.00 510.00,132.58 510.00,132.00 C510.00,131.45 509.33,131.00 508.50,131.00 C507.66,131.00 507.00,131.89 507.00,133.03 C507.00,134.15 507.67,135.32 508.50,135.64 C509.33,135.95 510.00,137.26 510.00,138.54 C510.00,139.99 510.76,141.11 512.01,141.50 C513.12,141.85 514.70,143.46 515.54,145.07 C516.83,147.56 517.64,148.00 521.03,148.00 C524.60,148.00 525.00,148.25 525.00,150.50 C525.00,152.03 525.57,153.00 526.46,153.00 C528.72,153.00 530.15,156.47 529.07,159.31 C528.54,160.72 528.52,162.12 529.03,162.63 C530.22,163.82 526.10,177.18 524.79,176.37 C524.18,175.99 524.03,176.52 524.42,177.74 C524.77,178.84 524.57,181.00 523.99,182.53 C523.18,184.67 523.23,185.53 524.21,186.15 ZM 145.47 187.96 C146.28,189.26 148.97,188.68 149.52,187.08 C150.16,185.22 160.49,178.00 162.51,178.00 C163.28,178.00 164.26,177.42 164.70,176.72 C165.99,174.64 174.25,169.00 176.00,169.00 C178.22,169.00 180.00,171.00 180.00,173.50 C180.00,175.66 184.48,178.00 188.60,178.00 C191.30,178.00 194.99,180.76 195.02,182.81 C195.05,184.47 200.77,188.00 203.43,188.00 C205.33,188.00 205.99,185.72 205.32,181.56 C204.91,179.05 204.22,178.00 202.98,178.00 C201.63,178.00 200.82,176.38 199.51,171.06 C198.58,167.24 198.12,163.61 198.50,163.00 C198.88,162.38 199.31,159.61 199.46,156.83 C199.71,152.35 200.21,151.34 203.97,147.80 C206.90,145.04 208.80,143.98 210.18,144.34 C211.63,144.72 213.47,143.47 217.06,139.68 C219.76,136.83 221.97,134.16 221.98,133.75 C221.99,133.34 219.34,133.00 216.08,133.00 C212.83,133.00 210.02,132.63 209.83,132.19 C209.65,131.74 205.45,131.71 200.50,132.11 C189.55,133.02 187.46,132.59 186.16,129.16 C183.98,123.43 182.88,119.00 183.42,118.12 C183.74,117.62 183.23,114.84 182.30,111.95 C181.36,109.06 180.40,107.29 180.16,108.01 C179.91,108.76 179.21,108.07 178.52,106.41 C177.65,104.32 177.62,103.29 178.41,102.75 C179.16,102.24 179.03,101.69 178.00,101.02 C176.12,99.78 175.84,99.79 174.00,101.09 C173.04,101.77 172.89,102.32 173.60,102.61 C174.33,102.91 173.86,105.43 172.19,110.12 C170.34,115.30 169.05,117.41 167.34,118.06 C165.22,118.87 165.00,119.56 165.00,125.46 C165.00,131.53 164.84,132.00 162.55,132.58 C161.20,132.91 157.49,132.90 154.30,132.54 C141.48,131.11 128.55,132.06 129.26,134.39 C129.45,135.00 131.40,136.40 133.60,137.50 C138.26,139.84 144.64,144.52 147.53,147.74 C148.65,148.98 150.05,150.00 150.64,150.00 C151.23,150.00 152.86,151.07 154.28,152.38 C156.65,154.58 156.77,155.08 155.81,158.85 C155.17,161.39 154.05,163.17 152.87,163.54 C151.83,163.87 151.23,164.56 151.54,165.07 C151.86,165.58 151.64,166.00 151.06,166.00 C150.43,166.00 150.00,168.44 150.00,172.00 C150.00,175.30 149.59,178.00 149.09,178.00 C148.05,178.00 144.82,186.89 145.47,187.96 ZM 294.41 172.93 C297.65,170.77 300.83,169.00 301.46,169.00 C302.09,169.00 304.16,170.16 306.06,171.59 C307.95,173.01 313.28,176.72 317.90,179.84 C322.53,182.95 326.89,185.93 327.61,186.46 C330.10,188.32 329.90,186.34 326.55,175.95 C324.70,170.20 322.49,163.13 321.64,160.24 L 320.10 154.98 L 325.80 150.51 C328.94,148.05 334.62,143.67 338.42,140.77 C342.23,137.87 345.53,134.95 345.75,134.27 C346.05,133.35 342.07,132.98 329.37,132.77 L 312.59 132.50 L 309.79 123.50 C306.40,112.63 301.90,101.00 301.09,101.01 C300.77,101.02 298.02,108.10 295.00,116.76 L 289.50 132.50 L 273.00 133.11 C263.92,133.45 256.35,133.79 256.17,133.86 C255.99,133.94 258.02,135.65 260.67,137.66 C272.97,146.99 282.00,154.21 282.00,154.71 C282.00,155.65 274.88,180.36 273.90,182.82 C272.17,187.17 274.06,186.94 281.29,181.89 C285.25,179.12 291.16,175.09 294.41,172.93 ZM 419.01 173.66 C422.74,171.19 424.65,169.79 426.62,169.71 C428.92,169.61 431.29,171.31 436.71,175.20 C437.13,175.50 437.56,175.81 438.01,176.13 C448.05,183.30 454.00,187.15 454.00,186.47 C454.00,185.12 450.75,172.31 449.94,170.50 C449.23,168.90 446.00,155.83 446.00,154.56 C446.00,154.39 448.59,152.28 451.75,149.89 C467.01,138.33 471.12,134.57 469.28,133.84 C468.30,133.46 461.06,133.11 453.19,133.07 L 438.89 133.00 L 436.59 127.75 C435.33,124.86 433.04,118.45 431.52,113.50 C429.99,108.55 428.16,103.67 427.46,102.65 C426.21,100.86 426.15,100.86 425.21,102.65 C424.68,103.67 422.77,109.00 420.95,114.50 C419.14,120.00 416.85,126.41 415.86,128.75 L 414.07 133.00 L 399.79 133.07 C391.93,133.11 384.67,133.47 383.66,133.86 C381.82,134.59 382.42,135.12 403.75,151.58 C405.54,152.96 407.00,154.74 407.00,155.53 C407.00,156.33 405.61,161.33 403.90,166.65 C400.01,178.81 398.17,185.84 398.75,186.41 C398.99,186.66 402.01,184.98 405.46,182.68 C408.90,180.38 415.00,176.32 419.01,173.66 ZM 328.00 281.00 L 293.00 281.00 L 293.00 291.33 C293.00,297.02 293.30,301.97 293.67,302.33 C294.03,302.70 301.91,303.00 311.17,303.00 L 328.00 303.00 Z" fill="rgb(236,236,236)"/>
<path d="M 145.47 187.96 C144.82,186.89 148.05,178.00 149.09,178.00 C149.59,178.00 150.00,175.30 150.00,172.00 C150.00,168.44 150.43,166.00 151.06,166.00 C151.64,166.00 151.86,165.58 151.54,165.07 C151.23,164.56 151.83,163.87 152.87,163.54 C154.05,163.17 155.17,161.39 155.81,158.85 C156.77,155.08 156.65,154.58 154.28,152.38 C152.86,151.07 151.23,150.00 150.64,150.00 C150.05,150.00 148.65,148.98 147.53,147.74 C144.64,144.52 138.26,139.84 133.60,137.50 C131.40,136.40 129.45,135.00 129.26,134.39 C128.55,132.06 141.48,131.11 154.30,132.54 C157.49,132.90 161.20,132.91 162.55,132.58 C164.84,132.00 165.00,131.53 165.00,125.46 C165.00,119.56 165.22,118.87 167.34,118.06 C169.05,117.41 170.34,115.30 172.19,110.12 C173.86,105.43 174.33,102.91 173.60,102.61 C172.89,102.32 173.04,101.77 174.00,101.09 C175.84,99.79 176.12,99.78 178.00,101.02 C179.03,101.69 179.16,102.24 178.41,102.75 C177.62,103.29 177.65,104.32 178.52,106.41 C179.21,108.07 179.91,108.76 180.16,108.01 C180.40,107.29 181.36,109.06 182.30,111.95 C183.23,114.84 183.74,117.62 183.42,118.12 C182.88,119.00 183.98,123.43 186.16,129.16 C187.46,132.59 189.55,133.02 200.50,132.11 C205.45,131.71 209.65,131.74 209.83,132.19 C210.02,132.63 212.83,133.00 216.08,133.00 C219.34,133.00 221.99,133.34 221.98,133.75 C221.97,134.16 219.76,136.83 217.06,139.68 C213.47,143.47 211.63,144.72 210.18,144.34 C208.80,143.98 206.90,145.04 203.97,147.80 C200.21,151.34 199.71,152.35 199.46,156.83 C199.31,159.61 198.88,162.38 198.50,163.00 C198.12,163.61 198.58,167.24 199.51,171.06 C200.82,176.38 201.63,178.00 202.98,178.00 C204.22,178.00 204.91,179.05 205.32,181.56 C205.99,185.72 205.33,188.00 203.43,188.00 C200.77,188.00 195.05,184.47 195.02,182.81 C194.99,180.76 191.30,178.00 188.60,178.00 C184.48,178.00 180.00,175.66 180.00,173.50 C180.00,171.00 178.22,169.00 176.00,169.00 C174.25,169.00 165.99,174.64 164.70,176.72 C164.26,177.42 163.28,178.00 162.51,178.00 C160.49,178.00 150.16,185.22 149.52,187.08 C148.97,188.68 146.28,189.26 145.47,187.96 ZM 524.21 186.15 C523.23,185.53 523.18,184.67 523.99,182.53 C524.57,181.00 524.77,178.84 524.42,177.74 C524.03,176.52 524.18,175.99 524.79,176.37 C526.10,177.18 530.22,163.82 529.03,162.63 C528.52,162.12 528.54,160.72 529.07,159.31 C530.15,156.47 528.72,153.00 526.46,153.00 C525.57,153.00 525.00,152.03 525.00,150.50 C525.00,148.25 524.60,148.00 521.03,148.00 C517.64,148.00 516.83,147.56 515.54,145.07 C514.70,143.46 513.12,141.85 512.01,141.50 C510.76,141.11 510.00,139.99 510.00,138.54 C510.00,137.26 509.33,135.95 508.50,135.64 C507.67,135.32 507.00,134.15 507.00,133.03 C507.00,131.89 507.66,131.00 508.50,131.00 C509.33,131.00 510.00,131.45 510.00,132.00 C510.00,132.58 513.15,133.00 517.44,133.00 C521.53,133.00 525.16,132.55 525.50,132.00 C525.84,131.45 529.02,131.00 532.56,131.00 C538.02,131.00 539.00,130.73 539.02,129.25 C539.03,127.75 539.17,127.72 540.00,129.00 C540.85,130.31 540.97,130.30 540.98,128.90 C540.99,128.03 541.72,125.87 542.60,124.11 C543.56,122.17 543.94,119.89 543.55,118.35 C542.59,114.51 546.47,103.75 549.29,102.45 C552.34,101.04 555.00,103.56 555.00,107.87 C555.00,112.57 557.54,118.00 559.75,118.00 C561.17,118.00 562.03,119.48 563.41,124.32 C565.18,130.50 565.32,130.67 569.62,131.82 C575.02,133.27 581.03,133.32 588.05,131.99 C594.11,130.84 597.42,131.44 596.26,133.48 C595.84,134.22 593.17,136.68 590.32,138.94 C587.42,141.25 584.99,144.04 584.82,145.28 C584.57,146.98 583.66,147.62 580.95,148.00 C579.00,148.27 575.91,149.68 574.07,151.13 C570.90,153.63 570.77,153.98 571.43,158.38 C571.85,161.17 572.64,163.00 573.43,163.00 C574.15,163.00 575.31,165.14 576.02,167.75 C576.72,170.36 577.68,172.93 578.15,173.45 C579.29,174.72 579.24,178.00 578.08,178.00 C577.53,178.00 577.56,179.46 578.15,181.59 C579.38,186.04 578.78,186.74 575.56,184.63 C574.19,183.73 570.24,181.90 566.78,180.57 C562.67,178.98 561.33,178.12 562.90,178.07 C565.05,178.01 564.86,177.68 561.01,174.89 C554.90,170.46 552.14,170.30 546.64,174.01 C544.12,175.71 541.27,176.97 540.30,176.80 C539.34,176.64 538.52,176.95 538.48,177.50 C538.38,179.17 532.30,185.00 530.66,185.00 C529.81,185.00 528.84,185.45 528.50,186.00 C527.76,187.20 525.97,187.27 524.21,186.15 Z" fill="rgb(205,178,133)"/>
</g>
</svg>